<svg viewBox="0 0 24 24" aria-hidden="true">
  <circle cx="12" cy="12" r="3"></circle>
  <path d="M19.4 15a1.7 1.7 0 0 0 .33 1.82l.06.06a2 2 0 1 1-2.83 2.83l-.06-.06A1.7 1.7 0 0 0 15 19.4a1.7 1.7 0 0 0-1 .6 1.7 1.7 0 0 0-.4 1.1V21a2 2 0 1 1-4 0v-.09a1.7 1.7 0 0 0-.4-1.1 1.7 1.7 0 0 0-1-.6 1.7 1.7 0 0 0-1.82.33l-.06.06a2 2 0 1 1-2.83-2.83l.06-.06A1.7 1.7 0 0 0 4.6 15a1.7 1.7 0 0 0-.6-1 1.7 1.7 0 0 0-1.1-.4H2.8a2 2 0 1 1 0-4h.09a1.7 1.7 0 0 0 1.1-.4 1.7 1.7 0 0 0 .6-1 1.7 1.7 0 0 0-.33-1.82l-.06-.06a2 2 0 1 1 2.83-2.83l.06.06A1.7 1.7 0 0 0 9 4.6a1.7 1.7 0 0 0 1-.6 1.7 1.7 0 0 0 .4-1.1V2.8a2 2 0 1 1 4 0v.09a1.7 1.7 0 0 0 .4 1.1 1.7 1.7 0 0 0 1 .6 1.7 1.7 0 0 0 1.82-.33l.06-.06a2 2 0 1 1 2.83 2.83l-.06.06A1.7 1.7 0 0 0 19.4 9c.28.3.49.65.6 1 .1.35.1.73 0 1.09a1.7 1.7 0 0 0 .4 1.1c.3.28.65.49 1 .6h.09a2 2 0 1 1 0 4h-.09a1.7 1.7 0 0 0-1 .4c-.3.28-.5.64-.6 1.1Z"></path>
</svg>
