<svg version="1.1" id="Layer_1" xmlns="http://www.w3.org/2000/svg" xmlns:xlink="http://www.w3.org/1999/xlink" x="0px" y="0px"
	 width="100%" viewBox="0 0 1024 1024" enable-background="new 0 0 1024 1024" xml:space="preserve">
<path fill="#000000" opacity="1.000000" stroke="none" 
	d="
M539.380798,709.720886 
	C541.136169,713.909973 542.482056,717.889771 544.432556,721.547058 
	C546.664734,725.732666 545.535645,727.627930 541.248596,729.313782 
	C521.410034,737.115356 501.719574,745.293335 481.890991,753.120972 
	C477.652313,754.794250 475.596222,757.222168 475.175751,761.846558 
	C474.528900,768.960022 473.097504,775.998535 472.238495,783.097839 
	C471.810883,786.632141 469.959259,787.854614 466.645569,788.075500 
	C463.180084,788.306519 462.477417,786.083435 461.877441,783.517517 
	C460.892273,779.304077 459.820923,775.110046 458.890930,770.884705 
	C458.179138,767.650635 456.542725,766.930725 453.467438,768.164368 
	C447.906464,770.395081 442.199707,772.261292 436.630157,774.471985 
	C433.609406,775.670959 431.496979,775.692200 429.527435,772.471619 
	C427.627563,769.364929 428.141510,767.522217 430.778503,765.312805 
	C435.372528,761.463501 439.616791,757.198486 444.178986,753.308655 
	C446.976074,750.923767 446.682739,749.151306 443.997803,746.956360 
	C440.647217,744.217285 437.596985,741.112061 434.262787,738.351257 
	C431.915924,736.408020 431.576965,734.590332 433.187286,731.916565 
	C434.737823,729.341919 436.309448,728.508362 439.270691,729.613037 
	C446.602448,732.347961 454.042480,734.791748 461.427795,737.384583 
	C463.363220,738.064087 465.150421,738.543396 467.097626,737.190186 
	C475.580139,731.295471 484.135132,725.505066 492.631226,719.629639 
	C493.260742,719.194458 493.633026,718.387329 494.208191,717.645630 
	C491.759155,714.572449 488.249573,713.721252 485.136536,712.337646 
	C466.566284,704.083313 447.940338,695.954529 429.348999,687.747559 
	C422.510773,684.728882 422.473907,684.574158 427.199646,678.870422 
	C430.813416,674.508789 434.582031,670.275269 438.189758,665.908813 
	C439.514038,664.306030 441.390289,662.870850 440.902344,660.284790 
	C439.092682,658.531677 436.804810,659.169006 434.734192,659.162048 
	C414.401703,659.093384 394.068970,659.114624 373.736328,659.081116 
	C366.688171,659.069519 366.589661,659.029541 366.776062,652.219971 
	C367.746643,616.768188 368.562775,581.310120 369.889282,545.871338 
	C370.362518,533.228699 370.569427,520.583862 370.963013,507.942383 
	C371.216156,499.810883 370.622681,499.370422 362.687286,499.365845 
	C342.687927,499.354309 322.687500,499.237000 302.690002,499.423859 
	C298.365967,499.464264 296.332855,498.444336 295.168121,493.837921 
	C288.153503,466.095337 280.612610,438.486084 273.548248,410.755676 
	C272.089844,405.030792 269.584808,401.789368 263.378448,401.421082 
	C258.419983,401.126801 253.513382,399.962891 248.582886,399.190735 
	C245.646469,398.730804 243.783859,397.526550 243.665848,394.074005 
	C243.550491,390.699005 245.393616,389.965424 248.085114,389.255310 
	C253.358536,387.864044 258.882416,387.354614 264.363831,384.908295 
	C262.958435,377.814484 260.422363,371.148499 257.946320,364.507660 
	C256.546509,360.753235 256.942566,358.457123 260.663910,356.367584 
	C264.516205,354.204559 265.766144,357.110962 267.521851,359.096893 
	C272.022522,364.187622 276.098297,369.666107 281.418457,374.561737 
	C286.181091,370.997986 289.689423,366.557587 293.510742,362.471893 
	C295.605682,360.232025 297.377716,359.312988 300.326782,361.316956 
	C303.131989,363.223175 303.390503,365.093842 302.181335,368.032074 
	C299.457855,374.650146 297.062500,381.402527 294.453918,388.069061 
	C293.371918,390.834198 293.819977,392.908997 295.904755,395.229065 
	C307.374268,407.993408 318.696930,420.890930 329.960388,433.838104 
	C331.999634,436.182190 333.707428,437.065552 336.722626,435.353973 
	C347.732056,429.104431 358.839081,423.023895 369.983307,417.016937 
	C372.621429,415.594910 373.872223,413.879059 373.877563,410.765076 
	C373.887817,404.779022 374.226044,398.787384 374.613281,392.810089 
	C374.911621,388.205109 373.335815,385.643646 368.390503,385.074341 
	C363.286194,384.486755 358.265320,383.192627 353.196960,382.267975 
	C349.921844,381.670441 348.375946,380.578064 349.393188,376.582397 
	C360.680542,332.246399 371.818298,287.872009 382.830994,243.466934 
	C383.918396,239.082428 385.926331,237.688110 390.401245,237.734055 
	C410.731567,237.942825 431.066711,237.902771 451.397339,237.689957 
	C455.697205,237.644943 457.490540,239.071548 458.536346,243.278915 
	C469.492279,287.354553 480.578796,331.398285 491.860687,375.391479 
	C493.127686,380.332153 491.810242,381.959808 487.073364,382.526245 
	C481.966278,383.136902 476.951599,384.483459 471.861633,385.287598 
	C468.667297,385.792236 467.089874,387.302246 467.308441,390.603851 
	C467.748138,397.245789 468.169281,403.889252 468.537872,410.535461 
	C468.753082,414.415588 470.677490,416.770599 474.159180,418.579285 
	C484.061798,423.723572 493.853394,429.092407 503.551208,434.614288 
	C506.987610,436.570953 509.269318,436.578857 512.048279,433.327789 
	C523.090027,420.410583 534.359741,407.686523 545.665955,394.998718 
	C547.754150,392.655334 547.943298,390.532379 546.838135,387.743500 
	C544.200745,381.088043 541.903748,374.297058 539.234680,367.655090 
	C537.982788,364.539490 538.852539,362.806213 541.576721,361.095551 
	C544.385803,359.331604 546.109375,360.274323 547.994507,362.385651 
	C550.878479,365.615601 553.960205,368.668365 556.868408,371.877533 
	C558.904053,374.123810 560.775879,374.062958 562.727905,371.850403 
	C566.806030,367.227997 570.990112,362.694489 574.935913,357.962067 
	C576.830811,355.689301 578.531494,354.837189 581.285767,356.580658 
	C583.930603,358.254791 585.585693,359.747894 584.150146,363.350800 
	C581.811035,369.221619 580.138733,375.354736 577.943726,381.287903 
	C576.834717,384.285492 577.811401,385.657471 580.669678,386.281799 
	C585.059753,387.240723 589.416321,388.378387 593.835266,389.172028 
	C597.174500,389.771759 598.106812,391.651184 598.048828,394.790070 
	C597.986511,398.170502 595.952393,398.847229 593.228821,399.259186 
	C586.981140,400.204163 580.770447,401.396423 574.518799,402.311371 
	C571.464355,402.758423 569.951782,404.250214 569.168640,407.273865 
	C561.910034,435.298035 554.474548,463.276398 547.208374,491.298645 
	C545.132080,499.305847 545.308167,499.359711 537.113098,499.359070 
	C518.280334,499.357666 499.447632,499.334290 480.614899,499.348358 
	C474.548309,499.352875 473.997894,499.811096 474.279724,505.963135 
	C474.881042,519.090088 475.688599,532.207458 476.350616,545.331848 
	C476.547974,549.244080 479.119690,550.195984 482.349365,550.677490 
	C502.271088,553.647766 522.187866,556.651733 542.102112,559.671875 
	C548.018433,560.569092 553.927368,561.518372 559.828369,562.511353 
	C563.815308,563.182312 566.564758,562.679932 566.957458,557.643250 
	C568.015991,544.065491 569.489624,530.520569 570.628418,516.948364 
	C571.894836,501.855560 572.955933,486.745636 574.161621,471.647583 
	C574.277527,470.196228 574.349731,468.622131 575.855225,467.260223 
	C579.856628,467.601166 583.473450,469.792480 587.280212,471.242310 
	C605.645691,478.236969 623.941406,485.414886 642.269775,492.507294 
	C648.267517,494.828217 649.656067,493.779633 648.573975,487.521942 
	C647.098389,478.988373 645.336731,470.503662 643.915649,461.961731 
	C643.448181,459.152069 642.077026,457.548218 639.591431,456.406586 
	C632.778931,453.277618 626.100952,449.846252 619.224060,446.871307 
	C616.002380,445.477631 615.052429,443.644684 615.783142,440.298096 
	C616.563293,436.724670 618.979797,436.491058 621.811462,436.710571 
	C625.294861,436.980530 628.791992,437.160645 632.253113,437.610718 
	C636.550720,438.169556 638.378662,436.265381 638.656189,432.116974 
	C639.004272,426.914398 637.815002,421.831665 637.720154,416.670227 
	C637.658813,413.331665 637.095947,410.203705 641.918030,409.110474 
	C646.780884,408.008026 647.586914,411.267548 648.991150,414.186493 
	C651.013306,418.389587 652.947571,422.635620 654.874023,426.883881 
	C657.532654,432.746613 657.954651,432.895203 663.680603,429.529083 
	C666.984192,427.587006 670.327454,425.702362 673.538513,423.615936 
	C676.098938,421.952271 677.775818,422.972046 679.587769,424.866211 
	C681.479431,426.843567 681.983276,428.608765 680.196167,430.986267 
	C675.490967,437.245972 671.105774,443.753662 666.239380,449.881683 
	C663.760864,453.002808 663.385986,455.526886 665.026367,459.305908 
	C673.581116,479.013733 681.644104,498.935181 690.217773,518.634521 
	C692.264038,523.335999 690.924866,524.869324 686.584351,526.537537 
	C670.417908,532.750610 654.430969,539.429382 638.305542,545.751892 
	C634.857178,547.103882 633.253784,549.085876 633.346619,552.800842 
	C633.483948,558.296326 633.419434,563.800049 633.301025,569.297302 
	C633.241577,572.057190 634.149658,573.626526 637.084900,574.084412 
	C654.509521,576.802429 671.918701,579.618958 689.332520,582.406006 
	C691.830933,582.805908 692.473938,581.349854 692.743469,579.244080 
	C694.008362,569.361694 695.435364,559.499512 696.633179,549.609314 
	C699.272888,527.814636 701.795166,506.005676 704.392334,484.205750 
	C706.809998,463.912018 709.228882,443.618317 711.710144,423.332306 
	C713.746826,406.681610 715.917236,390.047302 717.952759,373.396484 
	C720.254517,354.568970 722.451721,335.728668 724.734436,316.898804 
	C725.934204,307.002197 727.115417,297.101440 728.498596,287.229675 
	C729.633118,279.132507 729.230774,278.800934 720.871155,278.216034 
	C700.288208,276.775940 679.731140,274.967072 659.148804,273.516449 
	C636.225464,271.900787 613.298218,270.244019 590.345825,269.189545 
	C582.886841,268.846832 577.888916,267.000854 575.249207,259.389008 
	C573.049988,253.047409 569.527710,247.164688 566.640991,241.181519 
	C569.158264,239.137131 571.402832,239.766083 573.471191,239.764786 
	C640.135803,239.722961 706.800354,239.733215 773.464966,239.707382 
	C784.469727,239.703110 782.359924,239.644150 782.361572,248.396118 
	C782.385803,381.391785 782.392029,514.387451 782.403015,647.383118 
	C782.403137,648.883057 782.414673,650.382996 782.414551,651.882935 
	C782.413879,659.039734 782.370911,659.110779 775.165771,659.111511 
	C696.334961,659.119568 617.503845,659.200806 538.673767,658.963806 
	C532.259460,658.944519 527.925720,661.103394 524.181946,665.800537 
	C522.544312,667.855225 522.163513,669.729004 523.245544,672.205017 
	C528.645996,684.562683 533.919983,696.975586 539.380798,709.720886 
M378.653168,329.991028 
	C376.120117,340.439331 373.587067,350.887604 370.875946,362.070404 
	C375.128052,362.070404 378.578613,362.015991 382.026550,362.086731 
	C385.063110,362.148987 386.433594,360.909882 386.790192,357.733063 
	C388.515106,342.367218 390.368073,327.014099 392.377747,311.682983 
	C392.917419,307.566010 389.908081,307.615356 387.552704,306.737244 
	C384.697784,305.672974 384.043457,307.791565 383.550262,309.764282 
	C381.935028,316.225311 380.424377,322.712524 378.653168,329.991028 
M457.712708,308.872375 
	C457.164825,306.035675 455.324463,306.154938 453.172760,306.838959 
	C451.244537,307.451965 449.119293,307.893555 449.311951,310.571716 
	C449.525726,313.542969 449.887115,316.504486 450.222504,319.465912 
	C451.641388,331.993744 453.038483,344.524292 454.533234,357.043121 
	C454.827545,359.508087 455.222809,362.266174 458.590118,362.382874 
	C462.462555,362.517029 466.343201,362.413971 470.829407,362.413971 
	C466.329559,344.048004 462.112427,326.835876 457.712708,308.872375 
z"/>
</svg>